<?xml version="1.0" encoding="iso-8859-1"?>
<!-- Uploaded to: SVG Repo, www.svgrepo.com, Generator: SVG Repo Mixer Tools -->
<svg version="1.1" id="Layer_1" xmlns="http://www.w3.org/2000/svg" xmlns:xlink="http://www.w3.org/1999/xlink" 
	 viewBox="0 0 512 512" xml:space="preserve">
<rect x="4" y="65.048" style="fill:#FFFFFF;" width="504" height="381.896"/>
<g>
	<path style="fill:#AAC1CE;" d="M504,69.048v373.904H8V69.048H504 M512,61.048H0v389.904h512V61.048z"/>
	<rect x="3" y="126.848" style="fill:#AAC1CE;" width="505.84" height="8"/>
</g>
<circle style="fill:#E04F5F;" cx="48.08" cy="98.504" r="12.584"/>
<circle style="fill:#25B6D2;" cx="89.312" cy="98.504" r="12.584"/>
<circle style="fill:#32BEA6;" cx="130.568" cy="98.504" r="12.584"/>
<g>
	<path style="fill:#415E72;" d="M112.856,247.544c5.96-0.976,12-1.432,18.04-1.344c6.784-0.52,13.536,1.352,19.096,5.28
		c4.144,3.576,6.464,8.816,6.328,14.288c0.264,5.464-1.768,10.784-5.6,14.68c-5.648,4.888-12.984,7.376-20.44,6.912
		c-1.928,0.032-3.856-0.096-5.76-0.384v24.368h-11.664C112.856,311.344,112.856,247.544,112.856,247.544z M124.56,277.672
		c1.896,0.392,3.824,0.56,5.76,0.488c8.8,0,14.2-4.32,14.2-11.896c0-7.2-4.992-11.04-13.152-11.04
		c-2.288-0.048-4.568,0.144-6.816,0.576L124.56,277.672z"/>
	<path style="fill:#415E72;" d="M174.008,264.616l8.448,25.04c0.96,2.88,1.92,6.4,2.592,9.12h0.28c0.8-2.688,1.6-6.144,2.504-9.208
		l7.288-24.944h12.664l-11.704,31.848c-6.4,17.472-10.752,25.232-16.312,30.032c-3.432,3.2-7.744,5.304-12.376,6.048l-2.688-9.976
		c2.488-0.64,4.832-1.752,6.904-3.264c2.696-1.912,4.888-4.44,6.4-7.384c0.432-0.632,0.704-1.36,0.8-2.12
		c-0.032-0.808-0.264-1.6-0.672-2.296l-17.08-42.888L174.008,264.616z"/>
	<path style="fill:#415E72;" d="M228.152,251.28v13.336h11.2v8.8h-11.2v20.624c0,5.664,1.536,8.64,6.048,8.64
		c1.552,0.016,3.096-0.176,4.6-0.576l0.192,9.016c-2.76,0.864-5.648,1.256-8.536,1.16c-3.776,0.184-7.456-1.208-10.168-3.832
		c-2.808-3.744-4.112-8.4-3.648-13.056v-21.944h-6.72v-8.8h6.712v-10.584L228.152,251.28z"/>
	<path style="fill:#415E72;" d="M248.32,243.2h11.888v27.832h0.192c1.464-2.264,3.472-4.112,5.848-5.376
		c2.456-1.408,5.24-2.136,8.064-2.112c8,0,16.312,5.272,16.312,20.24v27.536h-11.792v-26.168c0-6.816-2.496-11.896-9.016-11.896
		c-4.152,0-7.832,2.672-9.12,6.624c-0.376,1.144-0.544,2.344-0.488,3.544v27.92H248.32V243.2z"/>
	<path style="fill:#415E72;" d="M347.656,287.552c0.944,12.752-8.624,23.856-21.376,24.8c-0.872,0.064-1.752,0.08-2.624,0.048
		c-12.472,0.48-22.96-9.24-23.44-21.712c-0.032-0.792-0.016-1.584,0.032-2.368c-0.952-12.704,8.568-23.776,21.272-24.728
		c0.968-0.072,1.936-0.088,2.904-0.032c12.36-0.488,22.784,9.128,23.272,21.496C347.728,285.888,347.712,286.72,347.656,287.552z
		 M312.456,288.04c0,9.016,4.416,15.832,11.608,15.832c6.712,0,11.416-6.616,11.416-16c0-7.288-3.264-15.64-11.32-15.64
		c-8.36-0.032-11.712,8.032-11.712,15.768L312.456,288.04z"/>
	<path style="fill:#415E72;" d="M357.376,278.536c0-5.376-0.104-9.88-0.392-13.912h10.4l0.568,7.008h0.288
		c3.152-5.16,8.824-8.24,14.872-8.064c8.16,0,16.6,5.272,16.6,20.056v27.728H387.88v-26.4c0-6.72-2.496-11.808-8.92-11.808
		c-4.232,0.096-7.928,2.872-9.208,6.904c-0.368,1.248-0.536,2.544-0.488,3.84v27.44h-11.888L357.376,278.536L357.376,278.536z"/>
</g>
</svg>
