<svg width="120" height="120" viewBox="0 0 120 120" fill="none" xmlns="http://www.w3.org/2000/svg">
<circle cx="60" cy="60" r="60" fill="black"/>
<g style="mix-blend-mode:screen">
<path d="M72.6793 20H59.1793V75C58.8017 76.4244 58.4981 77.1934 57.6793 78.5C56.2514 80.5387 55.0975 81.4952 52.6793 83C45.774 84.8876 42.4424 84.119 37.6793 78.5C35.4072 73.8151 35.6898 71.4542 37.6793 67.5C41.302 62.6422 44.2248 61.3837 51.1793 62V48.5C41.0654 46.5 32.6793 52.5 32.6793 52.5C32.6793 52.5 24.8264 56.8777 23.1793 70C21.5322 83.1223 31.3799 97.4893 46.6793 97.5C61.9787 97.5107 72.7512 85.4357 72.6793 75C72.6074 64.5643 72.6793 46 72.6793 46C79.5614 49.6957 83.4281 50.9341 91.1793 51.5V38.5C79.2501 36.0552 75.1042 32.1019 72.6793 20Z" fill="#69C9D0"/>
</g>
<g style="mix-blend-mode:screen">
<path d="M77.6793 23H64.1793V78C63.8017 79.4244 63.4981 80.1934 62.6793 81.5C61.2514 83.5387 60.0975 84.4952 57.6793 86C50.774 87.8876 47.4424 87.119 42.6793 81.5C40.4072 76.8151 40.6898 74.4542 42.6793 70.5C46.302 65.6422 49.2248 64.3837 56.1793 65V51.5C46.0654 49.5 37.6793 55.5 37.6793 55.5C37.6793 55.5 29.8264 59.8777 28.1793 73C26.5322 86.1223 36.3799 100.489 51.6793 100.5C66.9787 100.511 77.7512 88.4357 77.6793 78C77.6074 67.5643 77.6793 49 77.6793 49C84.5614 52.6957 88.4281 53.9341 96.1793 54.5V41.5C84.2501 39.0552 80.1042 35.1019 77.6793 23Z" fill="#EE1D52"/>
</g>
<path d="M73.0787 23H63.5787V74.5C63.0086 80.6695 61.6706 82.9365 58.0787 85.5C51.8728 88.1418 48.5275 87.4992 42.5787 83C37.1535 77.7598 36.339 74.447 38.0787 68C41.8654 62.3216 44.8904 61.1429 51.5787 62V51.5C37.972 53.4239 32.6069 57.4112 28.0787 71C27.4403 86.6956 30.5411 92.3638 42.5787 96.5C52.1635 98.0449 57.2722 96.9276 63.0787 92.5C66.3572 90 70.378 84.9988 73.0787 74.5V45.5C80.9925 50.4791 85.077 51.7261 91.5787 51.5V41C81.3074 37.6775 77.3539 33.6855 73.0787 23Z" fill="white" stroke="white"/>
</svg>
