<svg width="120" height="120" viewBox="0 0 120 120" fill="none" xmlns="http://www.w3.org/2000/svg">
<circle cx="60" cy="60" r="60" fill="#55ACEE"/>
<path d="M59.3749 50.4801C48.8515 49.698 43.2198 47.0925 34.0562 38.6388C31.6031 46.0733 32.9938 49.3922 37.9738 54.5417L32.9494 53.673C34.2716 59.8667 36.3076 62.5501 42.7603 65.4202L37.2621 65.5642C39.9687 70.7319 42.5054 72.5572 48.494 74.2731C42.3342 78.4758 38.4573 79.3111 31.1178 79.2297C48.1843 86.0657 57.0305 85.959 71.0517 76.1833C79.732 67.4064 82.7496 61.447 82.8145 47.8657L89.129 40.6979L83.6701 42.3414L87.5117 36.2387L79.0801 38.9604C74.3355 34.8876 71.2077 34.6533 65.0194 36.8277C59.7959 40.6502 58.8078 43.7659 59.3749 50.4801Z" fill="white"/>
</svg>
